<svg width="24" height="24" viewBox="0 0 24 24" fill="none" xmlns="http://www.w3.org/2000/svg">
<path d="M12 5C15.866 5 19 8.13401 19 12C19 15.866 15.866 19 12 19C8.13401 19 5 15.866 5 12C5 8.13401 8.13401 5 12 5ZM9.98242 10.3564L9.84082 11.2373H11.6016L11.0244 14.2119C11.0042 14.3332 10.9871 14.4378 10.9736 14.5254C10.9602 14.6129 10.9541 14.7005 10.9541 14.7881C10.9541 15.0579 11.0344 15.2777 11.1963 15.4463C11.3581 15.6149 11.6012 15.6992 11.9248 15.6992C12.0665 15.6992 12.2019 15.6791 12.3301 15.6387C12.465 15.5982 12.6035 15.534 12.7451 15.4463C12.8867 15.3519 13.0414 15.2334 13.21 15.0918C13.3785 14.9435 13.5673 14.7647 13.7764 14.5557L14.5664 13.7666L13.9492 13.21L12.1982 14.8184L11.9961 14.7373L12.8457 10.3564H9.98242ZM12.6533 7.99902C12.3972 7.99908 12.2083 8.05326 12.0869 8.16113C11.9724 8.2623 11.898 8.40391 11.8643 8.58594C11.8508 8.64659 11.8407 8.7039 11.834 8.75781C11.8272 8.81172 11.8242 8.85897 11.8242 8.89941C11.8242 9.03432 11.8744 9.15272 11.9756 9.25391C12.0767 9.3483 12.2556 9.39547 12.5117 9.39551C12.768 9.39551 12.9537 9.34435 13.0684 9.24316C13.1897 9.13528 13.267 8.99058 13.3008 8.80859C13.3143 8.74796 13.3253 8.69063 13.332 8.63672C13.3388 8.58289 13.3418 8.53552 13.3418 8.49512C13.3418 8.36023 13.2916 8.24482 13.1904 8.15039C13.0892 8.04921 12.9096 7.99902 12.6533 7.99902Z" fill="var(--lido-color-text)"/>
</svg>
