<svg xmlns="http://www.w3.org/2000/svg" width="20" height="20" viewBox="0 0 20 20" fill="none">
  <g opacity="0.5">
    <path d="M10 10.8334C10.4602 10.8334 10.8333 10.4603 10.8333 10.0001C10.8333 9.53984 10.4602 9.16675 10 9.16675C9.53977 9.16675 9.16668 9.53984 9.16668 10.0001C9.16668 10.4603 9.53977 10.8334 10 10.8334Z" stroke="currentColor" stroke-width="2" stroke-linecap="round" stroke-linejoin="round"/>
    <path d="M15.8333 10.8334C16.2936 10.8334 16.6667 10.4603 16.6667 10.0001C16.6667 9.53984 16.2936 9.16675 15.8333 9.16675C15.3731 9.16675 15 9.53984 15 10.0001C15 10.4603 15.3731 10.8334 15.8333 10.8334Z" stroke="currentColor" stroke-width="2" stroke-linecap="round" stroke-linejoin="round"/>
    <path d="M4.16668 10.8334C4.62691 10.8334 5.00001 10.4603 5.00001 10.0001C5.00001 9.53984 4.62691 9.16675 4.16668 9.16675C3.70644 9.16675 3.33334 9.53984 3.33334 10.0001C3.33334 10.4603 3.70644 10.8334 4.16668 10.8334Z" stroke="currentColor" stroke-width="2" stroke-linecap="round" stroke-linejoin="round"/>
  </g>
</svg>
