<svg xmlns="http://www.w3.org/2000/svg" width="24" height="24" fill="currentColor"><path fill="currentColor" d="M18 3a3 3 0 0 1 3 3v12a3 3 0 0 1-3 3H6a3 3 0 0 1-3-3V6a3 3 0 0 1 3-3zM6 5a1 1 0 0 0-1 1v4.234c1.55-1.274 4.218-2.22 8.78-2.169l-1.428-1.428 1.272-1.274 3.624 3.624-3.624 3.624-1.272-1.272 1.471-1.474c-4.385-.058-6.588.859-7.687 1.767-.699.577-1.004 1.195-1.136 1.67V18a1 1 0 0 0 1 1h12a1 1 0 0 0 1-1v-4.236c-1.55 1.274-4.218 2.22-8.781 2.17l1.405 1.405-1.273 1.272-3.624-3.624 3.624-3.624 1.273 1.274-1.498 1.496c4.42.066 6.635-.853 7.738-1.765.7-.577 1.004-1.196 1.136-1.67V6a1 1 0 0 0-1-1z"/></svg>
