<svg
  xmlns="http://www.w3.org/2000/svg"
  width="24"
  height="24"
  viewBox="0 0 24 24"
  fill="currentColor"
>
  <path
    fill="currentColor"
    fill-rule="evenodd"
    d="M3.667 5.333c0-.92.746-1.666 1.667-1.666H9.5c.92 0 1.667.746 1.667 1.666v5.834c0 .92-.746 1.666-1.667 1.666H5.334c-.92 0-1.667-.746-1.667-1.666V5.333Zm5.833 0H5.334v5.834H9.5V5.333Zm3.333 0c0-.92.746-1.666 1.667-1.666h4.166c.92 0 1.667.746 1.667 1.666v2.5c0 .92-.746 1.667-1.667 1.667H14.5c-.92 0-1.667-.746-1.667-1.667v-2.5Zm5.833 0H14.5v2.5h4.166v-2.5Zm-5.833 7.5c0-.92.746-1.666 1.667-1.666h4.166c.92 0 1.667.746 1.667 1.666v5.834c0 .92-.746 1.666-1.667 1.666H14.5c-.92 0-1.667-.746-1.667-1.666v-5.834Zm5.833 0H14.5v5.834h4.166v-5.834ZM3.667 16.167c0-.92.746-1.667 1.667-1.667H9.5c.92 0 1.667.746 1.667 1.667v2.5c0 .92-.746 1.666-1.667 1.666H5.334c-.92 0-1.667-.746-1.667-1.666v-2.5Zm5.833 0H5.334v2.5H9.5v-2.5Z"
    clip-rule="evenodd"
  />
</svg>
