<svg width="12" height="12" viewBox="0 0 12 12" fill="none" xmlns="http://www.w3.org/2000/svg">
<path d="M4.125 7.25L1 4.125M1 4.125L4.125 1M1 4.125H7.5625C8.01392 4.125 8.46092 4.21391 8.87797 4.38666C9.29503 4.55941 9.67398 4.81262 9.99318 5.13182C10.3124 5.45102 10.5656 5.82997 10.7383 6.24703C10.9111 6.66408 11 7.11108 11 7.5625C11 8.01392 10.9111 8.46092 10.7383 8.87797C10.5656 9.29503 10.3124 9.67398 9.99318 9.99318C9.67398 10.3124 9.29503 10.5656 8.87797 10.7383C8.46092 10.9111 8.01392 11 7.5625 11H5.375" stroke="#7A8AA0" stroke-width="1.5" stroke-linecap="round" stroke-linejoin="round"/>
</svg>
