<svg width="20" height="20" viewBox="0 0 20 20" fill="none" xmlns="http://www.w3.org/2000/svg">
<path d="M8.125 11.25L5 8.125M5 8.125L8.125 5M5 8.125H11.5625C12.0139 8.125 12.4609 8.21391 12.878 8.38666C13.295 8.55941 13.674 8.81262 13.9932 9.13182C14.3124 9.45102 14.5656 9.82997 14.7383 10.247C14.9111 10.6641 15 11.1111 15 11.5625C15 12.0139 14.9111 12.4609 14.7383 12.878C14.5656 13.295 14.3124 13.674 13.9932 13.9932C13.674 14.3124 13.295 14.5656 12.878 14.7383C12.4609 14.9111 12.0139 15 11.5625 15H9.375" stroke="#7A8AA0" stroke-width="1.5" stroke-linecap="round" stroke-linejoin="round"/>
</svg>
