<svg xmlns="http://www.w3.org/2000/svg" width="20" height="20" fill="none" viewBox="0 0 20 20"><path fill="currentColor" fill-rule="evenodd" d="M10 4a6 6 0 1 1-.403 11.984c-.152-.458-.414-1.246-.433-1.268-.119-.123-2.062-1.164-2.2-1.024-.028.03-.295.532-.588 1.088A6 6 0 0 1 10 4M7.083 9.313c-.329-.22-.464-.162-.549.238a3.6 3.6 0 0 0 .121 1.985c.787 2.26 3.441 2.896 5.1 1.57.32-.257.33-.405-.02-.64-.35-.233-.694-.47-1.04-.71l-1.027-.71.307-.491a.25.25 0 0 1 .124-.065.55.55 0 0 0 .312-.833.52.52 0 0 0-.543-.212c-.283.07-.434.345-.384.656.011.078.001.158-.03.23-.065.145-.162.271-.235.404-.748-.498-1.436-.954-2.136-1.422m2.86-1.084c-.283.026-.295.043-.23.316.022.087.136.057.3.039a1.15 1.15 0 0 1 1.188.685c.082.187.1.284.207.256l.059-.014c.164-.044.188-.091.122-.244l-.02-.046a1.62 1.62 0 0 0-1.627-.992m-.07-.989c-.44.038-.46.063-.354.5.034.139.21.093.465.067a1.8 1.8 0 0 1 1.854 1.111c.125.3.157.457.325.413l.092-.024c.254-.07.29-.145.185-.392l-.028-.075a2.55 2.55 0 0 0-2.54-1.6m2.39-.453c-.863-.643-1.823-.886-2.883-.686-.169.03-.225.117-.187.289.021.096.047.186.069.286.036.149.125.195.272.17 1.228-.192 2.198.242 2.928 1.242q.235.368.39.776c.095.212.144.248.363.19l.077-.019.14-.036v-.003c.176-.05.225-.14.164-.31-.263-.77-.686-1.418-1.332-1.899" clip-rule="evenodd"/></svg>
