<svg width="24" height="24" viewBox="0 0 24 24" fill="none" xmlns="http://www.w3.org/2000/svg">
  <g clip-path="url(#search_icon)">
    <path d="M10.5681 16.8767C11.9543 16.8767 13.2327 16.4285 14.2786 15.6814L18.2131 19.616C18.3958 19.7986 18.6365 19.8899 18.8938 19.8899C19.4333 19.8899 19.8152 19.4749 19.8152 18.9436C19.8152 18.6946 19.7322 18.4539 19.5496 18.2795L15.6399 14.3616C16.4617 13.2825 16.9514 11.946 16.9514 10.4934C16.9514 6.98218 14.0793 4.11011 10.5681 4.11011C7.06519 4.11011 4.18481 6.97388 4.18481 10.4934C4.18481 14.0046 7.05688 16.8767 10.5681 16.8767ZM10.5681 15.4988C7.82886 15.4988 5.56274 13.2327 5.56274 10.4934C5.56274 7.75415 7.82886 5.48804 10.5681 5.48804C13.3074 5.48804 15.5735 7.75415 15.5735 10.4934C15.5735 13.2327 13.3074 15.4988 10.5681 15.4988Z" fill="currentColor" fill-opacity="0.5"/>
  </g>
  <defs>
    <clipPath id="search_icon">
      <rect width="16" height="16" fill="white" transform="translate(4 4)"/>
    </clipPath>
  </defs>
</svg>
