<svg width="24" height="24" viewBox="0 0 24 24" fill="none" xmlns="http://www.w3.org/2000/svg">
  <path d="M12 5C15.866 5 19 8.13401 19 12C19 15.866 15.866 19 12 19C8.13401 19 5 15.866 5 12C5 8.13401 8.13401 5 12 5ZM12 13.5C11.4477 13.5 10.999 13.9477 10.999 14.5C10.999 15.0523 11.4477 15.5 12 15.5C12.5522 15.4999 13.001 15.0522 13.001 14.5C13.001 13.9478 12.5522 13.5001 12 13.5ZM11.999 8.5C11.4578 8.5 11.0289 8.958 11.0645 9.49805L11.3545 11.9004C11.3767 12.2375 11.6572 12.5 11.9951 12.5C12.3322 12.4998 12.6118 12.2387 12.6348 11.9023L12.9326 9.49902C12.969 8.95857 12.5407 8.50011 11.999 8.5Z" fill="#EC8600"/>
</svg>
